<?xml version="1.0" encoding="UTF-8"?>
<svg width="100px" height="100px" viewBox="0 0 100 100" version="1.1" xmlns="http://www.w3.org/2000/svg" xmlns:xlink="http://www.w3.org/1999/xlink">
    <!-- Generator: Sketch 41.1 (35376) - http://www.bohemiancoding.com/sketch -->
    <title>info</title>
    <desc>Created with Sketch.</desc>
    <defs>
        <circle id="path-1" cx="50" cy="50" r="46"></circle>
        <mask id="mask-2" maskContentUnits="userSpaceOnUse" maskUnits="objectBoundingBox" x="0" y="0" width="92" height="92" fill="white">
            <use xlink:href="#path-1"></use>
        </mask>
    </defs>
    <g id="Page-1" stroke="none" stroke-width="1" fill="none" fill-rule="evenodd">
        <g id="info">
            <path d="M55.9238281,43.3046875 L55.9238281,71.0429688 C55.9238281,72.9648534 55.4668014,74.4179638 54.5527344,75.4023438 C53.6386673,76.3867237 52.4785227,76.8789062 51.0722656,76.8789062 C49.6660086,76.8789062 48.5234419,76.375005 47.6445312,75.3671875 C46.7656206,74.35937 46.3261719,72.9179781 46.3261719,71.0429688 L46.3261719,43.5859375 C46.3261719,41.6874905 46.7656206,40.2578173 47.6445312,39.296875 C48.5234419,38.3359327 49.6660086,37.8554688 51.0722656,37.8554688 C52.4785227,37.8554688 53.6386673,38.3359327 54.5527344,39.296875 C55.4668014,40.2578173 55.9238281,41.5937414 55.9238281,43.3046875 Z M51.1777344,33.390625 C49.8417902,33.390625 48.6992235,32.9804729 47.75,32.1601562 C46.8007765,31.3398396 46.3261719,30.179695 46.3261719,28.6796875 C46.3261719,27.3203057 46.8124951,26.2011763 47.7851562,25.3222656 C48.7578174,24.443355 49.8886654,24.0039062 51.1777344,24.0039062 C52.4199281,24.0039062 53.5214796,24.4023398 54.4824219,25.1992188 C55.4433642,25.9960977 55.9238281,27.1562424 55.9238281,28.6796875 C55.9238281,30.1562574 55.4550828,31.3105427 54.5175781,32.1425781 C53.5800734,32.9746135 52.4668033,33.390625 51.1777344,33.390625 Z" id="i" fill="#000000"></path>
            <use id="Oval" stroke="#000000" mask="url(#mask-2)" stroke-width="6" xlink:href="#path-1"></use>
        </g>
    </g>
</svg>